<svg width="1024" height="1024" viewBox="0 0 1024 1024" fill="none" xmlns="http://www.w3.org/2000/svg">
<path d="M800 1024H224C100.3 1024 0 923.7 0 800V224C0 100.3 100.3 0 224 0H800C923.7 0 1024 100.3 1024 224V800C1024 923.7 923.7 1024 800 1024Z" fill="white"/>
<path fill-rule="evenodd" clip-rule="evenodd" d="M419.919 515.61H523.369C592.863 515.61 632.707 478.699 632.707 424.282V422.44C632.707 361.558 590.069 330.201 520.594 330.201H419.919L419.919 201.991H532.639C685.512 201.991 777.246 282.24 777.246 415.055C777.246 521.126 720.722 586.622 638.258 617.068L796.71 847.657H629.904L490.944 641.039H419.919V515.61Z" fill="#070707"/>
<path fill-rule="evenodd" clip-rule="evenodd" d="M195.5 169.125C214.163 171.069 241.464 185.918 251.983 201.273C262.501 216.628 261.328 259.755 261.328 309.437V869.062C314.519 852.514 324.808 804.428 328.558 786.894C332.282 804.428 342.508 852.514 395.708 869.062V286.061C395.708 237.337 392.911 216.863 385.437 202.25C376.119 184.706 358.392 169.125 337.849 169.125H195.5Z" fill="#DA322A"/>
</svg>
